<mxfile modified="2019-10-29T12:10:49.718Z" host="www.draw.io" agent="Mozilla/5.0 (Macintosh; Intel Mac OS X 10_14_5) AppleWebKit/537.36 (KHTML, like Gecko) Chrome/77.0.3865.90 Safari/537.36" etag="aMRKPUfKenBLvSRfvnlP" version="12.1.7" type="github" pages="2">
  <diagram id="g1nDHChdI3M6R9JiCXjo" name="第 1 页">
    <mxGraphModel dx="871" dy="674" grid="1" gridSize="10" guides="1" tooltips="1" connect="1" arrows="1" fold="1" page="1" pageScale="1" pageWidth="827" pageHeight="583" math="0" shadow="0">
      <root>
        <mxCell id="0"/>
        <mxCell id="1" parent="0"/>
        <mxCell id="CE0PrFvWAFrdw7EADg85-12" style="edgeStyle=orthogonalEdgeStyle;rounded=0;orthogonalLoop=1;jettySize=auto;html=1;exitX=1;exitY=0.25;exitDx=0;exitDy=0;entryX=0;entryY=0.5;entryDx=0;entryDy=0;" parent="1" source="SYcRluCzsth1b7bnGyp5-1" target="SYcRluCzsth1b7bnGyp5-2" edge="1">
          <mxGeometry relative="1" as="geometry">
            <Array as="points">
              <mxPoint x="198" y="160"/>
            </Array>
          </mxGeometry>
        </mxCell>
        <mxCell id="CE0PrFvWAFrdw7EADg85-13" style="edgeStyle=orthogonalEdgeStyle;rounded=0;orthogonalLoop=1;jettySize=auto;html=1;exitX=1;exitY=0.25;exitDx=0;exitDy=0;entryX=0;entryY=0.5;entryDx=0;entryDy=0;" parent="1" source="SYcRluCzsth1b7bnGyp5-1" target="SYcRluCzsth1b7bnGyp5-3" edge="1">
          <mxGeometry relative="1" as="geometry">
            <Array as="points">
              <mxPoint x="198" y="240"/>
            </Array>
          </mxGeometry>
        </mxCell>
        <mxCell id="CE0PrFvWAFrdw7EADg85-14" style="edgeStyle=orthogonalEdgeStyle;rounded=0;orthogonalLoop=1;jettySize=auto;html=1;exitX=1;exitY=0.5;exitDx=0;exitDy=0;" parent="1" source="SYcRluCzsth1b7bnGyp5-1" target="SYcRluCzsth1b7bnGyp5-4" edge="1">
          <mxGeometry relative="1" as="geometry">
            <Array as="points">
              <mxPoint x="198" y="380"/>
            </Array>
          </mxGeometry>
        </mxCell>
        <mxCell id="SYcRluCzsth1b7bnGyp5-1" value="页&lt;br&gt;面&lt;br&gt;应&lt;br&gt;答&lt;br&gt;基&lt;br&gt;类" style="rounded=0;whiteSpace=wrap;html=1;" parent="1" vertex="1">
          <mxGeometry x="158" y="120" width="40" height="320" as="geometry"/>
        </mxCell>
        <mxCell id="SYcRluCzsth1b7bnGyp5-2" value="HTTP错误&lt;br&gt;应答" style="rounded=0;whiteSpace=wrap;html=1;" parent="1" vertex="1">
          <mxGeometry x="638" y="120" width="40" height="80" as="geometry"/>
        </mxCell>
        <mxCell id="SYcRluCzsth1b7bnGyp5-3" value="HTTP重定位&lt;br&gt;应答" style="rounded=0;whiteSpace=wrap;html=1;" parent="1" vertex="1">
          <mxGeometry x="638" y="200" width="40" height="80" as="geometry"/>
        </mxCell>
        <mxCell id="SYcRluCzsth1b7bnGyp5-9" style="edgeStyle=orthogonalEdgeStyle;rounded=0;orthogonalLoop=1;jettySize=auto;html=1;exitX=1;exitY=0.5;exitDx=0;exitDy=0;entryX=0;entryY=0.5;entryDx=0;entryDy=0;" parent="1" source="SYcRluCzsth1b7bnGyp5-4" target="SYcRluCzsth1b7bnGyp5-8" edge="1">
          <mxGeometry relative="1" as="geometry"/>
        </mxCell>
        <mxCell id="SYcRluCzsth1b7bnGyp5-4" value="渲&lt;br&gt;染&lt;br&gt;页&lt;br&gt;面&lt;br&gt;应&lt;br&gt;答" style="rounded=0;whiteSpace=wrap;html=1;" parent="1" vertex="1">
          <mxGeometry x="238" y="280" width="40" height="160" as="geometry"/>
        </mxCell>
        <mxCell id="CE0PrFvWAFrdw7EADg85-16" style="edgeStyle=orthogonalEdgeStyle;rounded=0;orthogonalLoop=1;jettySize=auto;html=1;exitX=1;exitY=0.5;exitDx=0;exitDy=0;entryX=0;entryY=0.5;entryDx=0;entryDy=0;" parent="1" source="SYcRluCzsth1b7bnGyp5-5" target="CE0PrFvWAFrdw7EADg85-15" edge="1">
          <mxGeometry relative="1" as="geometry"/>
        </mxCell>
        <mxCell id="SYcRluCzsth1b7bnGyp5-5" value="业&lt;br&gt;务&lt;br&gt;渲&lt;br&gt;染" style="rounded=0;whiteSpace=wrap;html=1;" parent="1" vertex="1">
          <mxGeometry x="558" y="280" width="40" height="160" as="geometry"/>
        </mxCell>
        <mxCell id="SYcRluCzsth1b7bnGyp5-7" value="异常原则：哪个页面触发的异常就在哪个页面上显示异常信息" style="text;html=1;strokeColor=none;fillColor=none;align=center;verticalAlign=middle;whiteSpace=wrap;rounded=0;" parent="1" vertex="1">
          <mxGeometry x="258" y="250" width="330" height="20" as="geometry"/>
        </mxCell>
        <mxCell id="CE0PrFvWAFrdw7EADg85-7" style="edgeStyle=orthogonalEdgeStyle;rounded=0;orthogonalLoop=1;jettySize=auto;html=1;exitX=1;exitY=0.5;exitDx=0;exitDy=0;entryX=0;entryY=0.5;entryDx=0;entryDy=0;" parent="1" source="SYcRluCzsth1b7bnGyp5-8" target="CE0PrFvWAFrdw7EADg85-6" edge="1">
          <mxGeometry relative="1" as="geometry"/>
        </mxCell>
        <mxCell id="SYcRluCzsth1b7bnGyp5-8" value="html&lt;br&gt;结&lt;br&gt;构&lt;br&gt;渲&lt;br&gt;染" style="rounded=0;whiteSpace=wrap;html=1;" parent="1" vertex="1">
          <mxGeometry x="318" y="280" width="40" height="160" as="geometry"/>
        </mxCell>
        <mxCell id="CE0PrFvWAFrdw7EADg85-9" style="edgeStyle=orthogonalEdgeStyle;rounded=0;orthogonalLoop=1;jettySize=auto;html=1;exitX=1;exitY=0.25;exitDx=0;exitDy=0;entryX=0;entryY=0.5;entryDx=0;entryDy=0;" parent="1" source="CE0PrFvWAFrdw7EADg85-6" target="CE0PrFvWAFrdw7EADg85-8" edge="1">
          <mxGeometry relative="1" as="geometry"/>
        </mxCell>
        <mxCell id="CE0PrFvWAFrdw7EADg85-11" style="edgeStyle=orthogonalEdgeStyle;rounded=0;orthogonalLoop=1;jettySize=auto;html=1;exitX=1;exitY=0.75;exitDx=0;exitDy=0;entryX=0;entryY=0.75;entryDx=0;entryDy=0;" parent="1" source="CE0PrFvWAFrdw7EADg85-6" target="SYcRluCzsth1b7bnGyp5-5" edge="1">
          <mxGeometry relative="1" as="geometry"/>
        </mxCell>
        <mxCell id="CE0PrFvWAFrdw7EADg85-6" value="全&lt;br&gt;局&lt;br&gt;渲&lt;br&gt;染" style="rounded=0;whiteSpace=wrap;html=1;" parent="1" vertex="1">
          <mxGeometry x="398" y="280" width="40" height="160" as="geometry"/>
        </mxCell>
        <mxCell id="CE0PrFvWAFrdw7EADg85-10" style="edgeStyle=orthogonalEdgeStyle;rounded=0;orthogonalLoop=1;jettySize=auto;html=1;exitX=1;exitY=0.5;exitDx=0;exitDy=0;entryX=0;entryY=0.25;entryDx=0;entryDy=0;" parent="1" source="CE0PrFvWAFrdw7EADg85-8" target="SYcRluCzsth1b7bnGyp5-5" edge="1">
          <mxGeometry relative="1" as="geometry"/>
        </mxCell>
        <mxCell id="CE0PrFvWAFrdw7EADg85-8" value="局&lt;br&gt;部&lt;br&gt;渲&lt;br&gt;染" style="rounded=0;whiteSpace=wrap;html=1;" parent="1" vertex="1">
          <mxGeometry x="478" y="280" width="40" height="80" as="geometry"/>
        </mxCell>
        <mxCell id="CE0PrFvWAFrdw7EADg85-15" value="HTTP&lt;br&gt;业务&lt;br&gt;应答" style="rounded=0;whiteSpace=wrap;html=1;" parent="1" vertex="1">
          <mxGeometry x="638" y="280" width="40" height="160" as="geometry"/>
        </mxCell>
      </root>
    </mxGraphModel>
  </diagram>
  <diagram id="to4vcvSppGvMGXZuiElM" name="第 2 页">
    <mxGraphModel dx="1032" dy="708" grid="1" gridSize="10" guides="1" tooltips="1" connect="1" arrows="1" fold="1" page="1" pageScale="1" pageWidth="1169" pageHeight="827" math="0" shadow="0">
      <root>
        <mxCell id="2GGKISkFBEZ9ldlHul2w-0"/>
        <mxCell id="2GGKISkFBEZ9ldlHul2w-1" parent="2GGKISkFBEZ9ldlHul2w-0"/>
        <mxCell id="2GGKISkFBEZ9ldlHul2w-31" value="采集器" style="ellipse;whiteSpace=wrap;html=1;aspect=fixed;fontSize=20;" vertex="1" parent="2GGKISkFBEZ9ldlHul2w-1">
          <mxGeometry x="20" y="250" width="79" height="79" as="geometry"/>
        </mxCell>
        <mxCell id="2GGKISkFBEZ9ldlHul2w-32" value="" style="endArrow=classic;html=1;fontSize=10;entryX=0;entryY=0.5;entryDx=0;entryDy=0;fontColor=#0000FF;strokeColor=#0000FF;exitX=1;exitY=1;exitDx=0;exitDy=0;strokeWidth=2;" edge="1" parent="2GGKISkFBEZ9ldlHul2w-1" source="2GGKISkFBEZ9ldlHul2w-31" target="2GGKISkFBEZ9ldlHul2w-72">
          <mxGeometry width="50" height="50" relative="1" as="geometry">
            <mxPoint x="180" y="340" as="sourcePoint"/>
            <mxPoint x="190" y="310" as="targetPoint"/>
          </mxGeometry>
        </mxCell>
        <mxCell id="2GGKISkFBEZ9ldlHul2w-33" value="SCADA数据点" style="text;html=1;resizable=0;points=[];align=center;verticalAlign=middle;labelBackgroundColor=#ffffff;fontSize=10;fontColor=#0000FF;" vertex="1" connectable="0" parent="2GGKISkFBEZ9ldlHul2w-32">
          <mxGeometry x="-0.1524" y="3" relative="1" as="geometry">
            <mxPoint as="offset"/>
          </mxGeometry>
        </mxCell>
        <mxCell id="2GGKISkFBEZ9ldlHul2w-34" value="&lt;font color=&quot;#000000&quot; style=&quot;font-size: 20px;&quot;&gt;监视器&lt;/font&gt;" style="ellipse;whiteSpace=wrap;html=1;aspect=fixed;fontSize=20;fontColor=#0000FF;" vertex="1" parent="2GGKISkFBEZ9ldlHul2w-1">
          <mxGeometry x="40" y="560" width="80" height="80" as="geometry"/>
        </mxCell>
        <mxCell id="2GGKISkFBEZ9ldlHul2w-35" value="&lt;font color=&quot;#000000&quot; style=&quot;font-size: 20px;&quot;&gt;控制器&lt;/font&gt;" style="ellipse;whiteSpace=wrap;html=1;aspect=fixed;fontSize=20;fontColor=#0000FF;" vertex="1" parent="2GGKISkFBEZ9ldlHul2w-1">
          <mxGeometry x="40" y="440" width="80" height="80" as="geometry"/>
        </mxCell>
        <mxCell id="2GGKISkFBEZ9ldlHul2w-37" value="" style="endArrow=classic;html=1;strokeColor=#0000FF;fontSize=10;fontColor=#0000FF;exitX=1;exitY=0.25;exitDx=0;exitDy=0;entryX=0;entryY=1;entryDx=0;entryDy=0;strokeWidth=2;" edge="1" parent="2GGKISkFBEZ9ldlHul2w-1" source="2GGKISkFBEZ9ldlHul2w-72" target="2GGKISkFBEZ9ldlHul2w-35">
          <mxGeometry width="50" height="50" relative="1" as="geometry">
            <mxPoint x="440" y="470" as="sourcePoint"/>
            <mxPoint x="490" y="420" as="targetPoint"/>
            <Array as="points"/>
          </mxGeometry>
        </mxCell>
        <mxCell id="2GGKISkFBEZ9ldlHul2w-38" value="" style="endArrow=classic;html=1;strokeColor=#0000FF;fontSize=10;fontColor=#0000FF;exitX=1;exitY=0.5;exitDx=0;exitDy=0;strokeWidth=2;" edge="1" parent="2GGKISkFBEZ9ldlHul2w-1" source="2GGKISkFBEZ9ldlHul2w-72" target="2GGKISkFBEZ9ldlHul2w-34">
          <mxGeometry width="50" height="50" relative="1" as="geometry">
            <mxPoint x="380" y="130" as="sourcePoint"/>
            <mxPoint x="510" y="220" as="targetPoint"/>
          </mxGeometry>
        </mxCell>
        <mxCell id="2GGKISkFBEZ9ldlHul2w-40" value="" style="endArrow=classic;html=1;strokeColor=#FF3333;fontSize=10;fontColor=#0000FF;entryX=0;entryY=0.5;entryDx=0;entryDy=0;exitX=1;exitY=0.5;exitDx=0;exitDy=0;strokeWidth=2;" edge="1" parent="2GGKISkFBEZ9ldlHul2w-1" source="2GGKISkFBEZ9ldlHul2w-34" target="2GGKISkFBEZ9ldlHul2w-76">
          <mxGeometry width="50" height="50" relative="1" as="geometry">
            <mxPoint x="440" y="130" as="sourcePoint"/>
            <mxPoint x="570" y="200" as="targetPoint"/>
            <Array as="points"/>
          </mxGeometry>
        </mxCell>
        <mxCell id="2GGKISkFBEZ9ldlHul2w-41" value="&lt;font color=&quot;#ff3333&quot; style=&quot;font-size: 11px;&quot;&gt;监视事件&lt;/font&gt;" style="text;html=1;resizable=0;points=[];align=center;verticalAlign=middle;labelBackgroundColor=#ffffff;fontSize=11;fontColor=#0000FF;" vertex="1" connectable="0" parent="2GGKISkFBEZ9ldlHul2w-40">
          <mxGeometry x="-0.192" y="-1" relative="1" as="geometry">
            <mxPoint x="1" as="offset"/>
          </mxGeometry>
        </mxCell>
        <mxCell id="2GGKISkFBEZ9ldlHul2w-42" value="" style="endArrow=classic;html=1;strokeColor=#00FF00;fontSize=7;fontColor=#0000FF;exitX=1;exitY=0.5;exitDx=0;exitDy=0;entryX=0;entryY=0.5;entryDx=0;entryDy=0;strokeWidth=2;" edge="1" parent="2GGKISkFBEZ9ldlHul2w-1" source="2GGKISkFBEZ9ldlHul2w-35" target="2GGKISkFBEZ9ldlHul2w-74">
          <mxGeometry width="50" height="50" relative="1" as="geometry">
            <mxPoint x="140" y="520" as="sourcePoint"/>
            <mxPoint x="190" y="470" as="targetPoint"/>
            <Array as="points"/>
          </mxGeometry>
        </mxCell>
        <mxCell id="2GGKISkFBEZ9ldlHul2w-43" value="控制事件" style="text;html=1;resizable=0;points=[];align=center;verticalAlign=middle;labelBackgroundColor=#ffffff;fontSize=10;fontColor=#00FF00;" vertex="1" connectable="0" parent="2GGKISkFBEZ9ldlHul2w-42">
          <mxGeometry x="-0.0249" y="4" relative="1" as="geometry">
            <mxPoint x="13" y="2.5" as="offset"/>
          </mxGeometry>
        </mxCell>
        <mxCell id="2GGKISkFBEZ9ldlHul2w-45" value="" style="endArrow=classic;html=1;strokeColor=#00FF00;fontSize=7;fontColor=#0000FF;entryX=1;entryY=0.5;entryDx=0;entryDy=0;exitX=0.25;exitY=0;exitDx=0;exitDy=0;strokeWidth=2;" edge="1" parent="2GGKISkFBEZ9ldlHul2w-1" source="2GGKISkFBEZ9ldlHul2w-74" target="2GGKISkFBEZ9ldlHul2w-31">
          <mxGeometry width="50" height="50" relative="1" as="geometry">
            <mxPoint x="140" y="520" as="sourcePoint"/>
            <mxPoint x="190" y="470" as="targetPoint"/>
            <Array as="points"/>
          </mxGeometry>
        </mxCell>
        <mxCell id="2GGKISkFBEZ9ldlHul2w-46" value="" style="endArrow=classic;html=1;strokeColor=#00FF00;fontSize=7;fontColor=#00FF00;exitX=0.25;exitY=1;exitDx=0;exitDy=0;entryX=0;entryY=1;entryDx=0;entryDy=0;strokeWidth=2;" edge="1" parent="2GGKISkFBEZ9ldlHul2w-1" source="2GGKISkFBEZ9ldlHul2w-74" target="2GGKISkFBEZ9ldlHul2w-34">
          <mxGeometry width="50" height="50" relative="1" as="geometry">
            <mxPoint x="140" y="520" as="sourcePoint"/>
            <mxPoint x="190" y="470" as="targetPoint"/>
            <Array as="points"/>
          </mxGeometry>
        </mxCell>
        <mxCell id="2GGKISkFBEZ9ldlHul2w-47" value="" style="endArrow=classic;html=1;strokeColor=#FF3333;fontSize=7;fontColor=#00FF00;entryX=1;entryY=0;entryDx=0;entryDy=0;exitX=0.25;exitY=0;exitDx=0;exitDy=0;strokeWidth=2;" edge="1" parent="2GGKISkFBEZ9ldlHul2w-1" source="2GGKISkFBEZ9ldlHul2w-76" target="2GGKISkFBEZ9ldlHul2w-31">
          <mxGeometry width="50" height="50" relative="1" as="geometry">
            <mxPoint x="140" y="520" as="sourcePoint"/>
            <mxPoint x="190" y="470" as="targetPoint"/>
            <Array as="points"/>
          </mxGeometry>
        </mxCell>
        <mxCell id="2GGKISkFBEZ9ldlHul2w-48" value="&lt;font color=&quot;#000000&quot; style=&quot;font-size: 18px;&quot;&gt;记录仪&lt;/font&gt;" style="ellipse;whiteSpace=wrap;html=1;aspect=fixed;fontSize=18;fillColor=#dae8fc;strokeColor=#6c8ebf;" vertex="1" parent="2GGKISkFBEZ9ldlHul2w-1">
          <mxGeometry x="612.5" y="452.5" width="85" height="85" as="geometry"/>
        </mxCell>
        <mxCell id="2GGKISkFBEZ9ldlHul2w-49" value="" style="endArrow=classic;html=1;strokeColor=#FF3333;fontSize=7;fontColor=#00FF00;entryX=0;entryY=1;entryDx=0;entryDy=0;exitX=1;exitY=0.5;exitDx=0;exitDy=0;strokeWidth=2;" edge="1" parent="2GGKISkFBEZ9ldlHul2w-1" source="2GGKISkFBEZ9ldlHul2w-76" target="2GGKISkFBEZ9ldlHul2w-48">
          <mxGeometry width="50" height="50" relative="1" as="geometry">
            <mxPoint x="90" y="520" as="sourcePoint"/>
            <mxPoint x="140" y="470" as="targetPoint"/>
            <Array as="points"/>
          </mxGeometry>
        </mxCell>
        <mxCell id="2GGKISkFBEZ9ldlHul2w-50" value="" style="endArrow=classic;html=1;strokeColor=#0000FF;fontSize=7;fontColor=#00FF00;entryX=0;entryY=0;entryDx=0;entryDy=0;exitX=1;exitY=0.75;exitDx=0;exitDy=0;strokeWidth=2;" edge="1" parent="2GGKISkFBEZ9ldlHul2w-1" source="2GGKISkFBEZ9ldlHul2w-72" target="2GGKISkFBEZ9ldlHul2w-48">
          <mxGeometry width="50" height="50" relative="1" as="geometry">
            <mxPoint x="90" y="520" as="sourcePoint"/>
            <mxPoint x="140" y="470" as="targetPoint"/>
          </mxGeometry>
        </mxCell>
        <mxCell id="2GGKISkFBEZ9ldlHul2w-51" value="" style="endArrow=classic;html=1;strokeColor=#00FF00;fontSize=7;fontColor=#00FF00;entryX=0;entryY=0.5;entryDx=0;entryDy=0;strokeWidth=2;exitX=1;exitY=0.5;exitDx=0;exitDy=0;" edge="1" parent="2GGKISkFBEZ9ldlHul2w-1" source="2GGKISkFBEZ9ldlHul2w-74" target="2GGKISkFBEZ9ldlHul2w-48">
          <mxGeometry width="50" height="50" relative="1" as="geometry">
            <mxPoint x="370" y="210" as="sourcePoint"/>
            <mxPoint x="140" y="470" as="targetPoint"/>
            <Array as="points"/>
          </mxGeometry>
        </mxCell>
        <mxCell id="2GGKISkFBEZ9ldlHul2w-52" value="数据库" style="shape=cylinder;whiteSpace=wrap;html=1;boundedLbl=1;backgroundOutline=1;fontSize=15;fontColor=#000000;" vertex="1" parent="2GGKISkFBEZ9ldlHul2w-1">
          <mxGeometry x="690" y="30" width="80" height="80" as="geometry"/>
        </mxCell>
        <mxCell id="2GGKISkFBEZ9ldlHul2w-58" value="" style="endArrow=classic;html=1;strokeColor=#000000;strokeWidth=2;fontSize=11;fontColor=#000000;exitX=1;exitY=0;exitDx=0;exitDy=0;entryX=0.5;entryY=1;entryDx=0;entryDy=0;" edge="1" parent="2GGKISkFBEZ9ldlHul2w-1" source="2GGKISkFBEZ9ldlHul2w-48" target="2GGKISkFBEZ9ldlHul2w-52">
          <mxGeometry width="50" height="50" relative="1" as="geometry">
            <mxPoint x="50" y="530" as="sourcePoint"/>
            <mxPoint x="190" y="-30" as="targetPoint"/>
          </mxGeometry>
        </mxCell>
        <mxCell id="2GGKISkFBEZ9ldlHul2w-59" value="" style="endArrow=classic;html=1;strokeColor=#000000;strokeWidth=2;fontSize=15;fontColor=#000000;entryX=0.5;entryY=0;entryDx=0;entryDy=0;exitX=0;exitY=0.3;exitDx=0;exitDy=0;" edge="1" parent="2GGKISkFBEZ9ldlHul2w-1" source="2GGKISkFBEZ9ldlHul2w-52" target="2GGKISkFBEZ9ldlHul2w-31">
          <mxGeometry width="50" height="50" relative="1" as="geometry">
            <mxPoint x="100" y="40" as="sourcePoint"/>
            <mxPoint x="100" y="480" as="targetPoint"/>
            <Array as="points"/>
          </mxGeometry>
        </mxCell>
        <mxCell id="2GGKISkFBEZ9ldlHul2w-61" value="加载采集器记录" style="text;html=1;resizable=0;points=[];align=center;verticalAlign=middle;labelBackgroundColor=#ffffff;fontSize=15;fontColor=#000000;" vertex="1" connectable="0" parent="2GGKISkFBEZ9ldlHul2w-59">
          <mxGeometry x="-0.1184" y="-2" relative="1" as="geometry">
            <mxPoint as="offset"/>
          </mxGeometry>
        </mxCell>
        <mxCell id="2GGKISkFBEZ9ldlHul2w-60" value="" style="endArrow=classic;html=1;strokeColor=#000000;strokeWidth=2;fontSize=15;fontColor=#000000;entryX=0.5;entryY=0;entryDx=0;entryDy=0;exitX=0;exitY=0.5;exitDx=0;exitDy=0;" edge="1" parent="2GGKISkFBEZ9ldlHul2w-1" source="2GGKISkFBEZ9ldlHul2w-52" target="2GGKISkFBEZ9ldlHul2w-34">
          <mxGeometry width="50" height="50" relative="1" as="geometry">
            <mxPoint x="580" y="130" as="sourcePoint"/>
            <mxPoint x="630" y="80" as="targetPoint"/>
            <Array as="points"/>
          </mxGeometry>
        </mxCell>
        <mxCell id="2GGKISkFBEZ9ldlHul2w-62" value="加载监视对象" style="text;html=1;resizable=0;points=[];align=center;verticalAlign=middle;labelBackgroundColor=#ffffff;fontSize=15;fontColor=#000000;" vertex="1" connectable="0" parent="2GGKISkFBEZ9ldlHul2w-60">
          <mxGeometry x="-0.0724" y="-2" relative="1" as="geometry">
            <mxPoint y="1" as="offset"/>
          </mxGeometry>
        </mxCell>
        <mxCell id="2GGKISkFBEZ9ldlHul2w-65" value="" style="endArrow=classic;html=1;strokeColor=#000000;strokeWidth=2;fontSize=15;fontColor=#000000;entryX=0.5;entryY=0;entryDx=0;entryDy=0;" edge="1" parent="2GGKISkFBEZ9ldlHul2w-1" source="2GGKISkFBEZ9ldlHul2w-52" target="2GGKISkFBEZ9ldlHul2w-35">
          <mxGeometry width="50" height="50" relative="1" as="geometry">
            <mxPoint x="400" y="70" as="sourcePoint"/>
            <mxPoint x="450" y="20" as="targetPoint"/>
          </mxGeometry>
        </mxCell>
        <mxCell id="2GGKISkFBEZ9ldlHul2w-66" value="加载可控制对象" style="text;html=1;resizable=0;points=[];align=center;verticalAlign=middle;labelBackgroundColor=#ffffff;fontSize=15;fontColor=#000000;" vertex="1" connectable="0" parent="2GGKISkFBEZ9ldlHul2w-65">
          <mxGeometry x="-0.05" relative="1" as="geometry">
            <mxPoint as="offset"/>
          </mxGeometry>
        </mxCell>
        <mxCell id="2GGKISkFBEZ9ldlHul2w-72" value="采集数据点发布通道" style="shape=process;whiteSpace=wrap;html=1;backgroundOutline=1;fontSize=15;fillColor=#f5f5f5;strokeColor=#666666;fontColor=#333333;" vertex="1" parent="2GGKISkFBEZ9ldlHul2w-1">
          <mxGeometry x="249.5" y="370" width="241" height="30" as="geometry"/>
        </mxCell>
        <mxCell id="2GGKISkFBEZ9ldlHul2w-74" value="控制数据点发布通道" style="shape=process;whiteSpace=wrap;html=1;backgroundOutline=1;fontSize=15;fillColor=#d5e8d4;strokeColor=#82b366;" vertex="1" parent="2GGKISkFBEZ9ldlHul2w-1">
          <mxGeometry x="249.5" y="465" width="241" height="30" as="geometry"/>
        </mxCell>
        <mxCell id="2GGKISkFBEZ9ldlHul2w-76" value="监视事件发布通道" style="shape=process;whiteSpace=wrap;html=1;backgroundOutline=1;fontSize=15;fillColor=#ffe6cc;strokeColor=#d79b00;" vertex="1" parent="2GGKISkFBEZ9ldlHul2w-1">
          <mxGeometry x="360" y="530" width="241" height="30" as="geometry"/>
        </mxCell>
      </root>
    </mxGraphModel>
  </diagram>
</mxfile>
